<svg width="1678" height="155" viewBox="0 0 1678 155" fill="none" xmlns="http://www.w3.org/2000/svg">
<path d="M31.5817 154V138.615H93.1202V154H31.5817ZM16.1971 138.615V123.231H31.5817V138.615H16.1971ZM93.1202 138.615V123.231H108.505V138.615H93.1202ZM0.8125 123.231V46.3077H16.1971V123.231H0.8125ZM16.1971 46.3077V30.923H31.5817V46.3077H16.1971ZM31.5817 30.923V15.5384H46.9664V30.923H31.5817ZM108.505 30.923V15.5384H123.889V30.923H108.505ZM46.9664 15.5384V0.153809H108.505V15.5384H46.9664Z" fill="#ffff00"/>
<path d="M170.058 154V138.615H216.212V154.24L170.058 154ZM154.674 138.615V123.231H170.058V138.615H154.674ZM216.212 138.615V123.231H246.981V138.615H216.212ZM246.981 123.231V92.4615H262.366V123.231H246.981ZM139.289 123.231V61.6923H154.674V123.231H139.289ZM154.674 61.6923V30.923H170.058V61.6923H154.674ZM262.366 92.4615V30.923H277.751V92.4615H262.366ZM170.058 30.923V15.5384H200.828V30.923H170.058ZM246.981 30.923V15.5384H262.366V30.923H246.981ZM200.828 15.5384V0.153809H246.981V15.5384H200.828Z" fill="#ffff00"/>
<path d="M370.118 138.615V123.231H385.503V138.615H370.118ZM385.503 123.231V107.846H400.888V123.231H385.503ZM293.195 154V77.0769H308.58V138.615H370.118V154H293.195ZM400.888 107.846V30.923H416.272V107.846H400.888ZM385.503 30.923V15.5384H400.888V30.923H385.503ZM308.58 77.0769V0.153809H385.503V15.5384H323.965V77.0769H308.58Z" fill="#ffff00"/>
<path d="M431.672 154V77.0769H447.056V138.615H539.364V154H431.672ZM447.056 77.0769V0.153809H539.364V15.5384H462.441V61.6923H523.98V77.0769H447.056Z" fill="#ffff00"/>
<path d="M693.105 154V138.615H739.259V154H693.105ZM677.721 138.615V123.231H693.105V138.615H677.721ZM739.259 138.615V123.231H754.644V138.615H739.259ZM662.336 123.231V107.846H677.721V123.231H662.336ZM754.644 123.231V92.4615H770.028V123.231H754.644ZM723.874 92.4615V77.0769H754.644V92.4615H723.874ZM693.105 77.0769V61.6923H723.874V77.0769H693.105ZM677.721 61.6923V30.923H693.105V61.6923H677.721ZM693.105 30.923V15.5384H708.49V30.923H693.105ZM754.644 30.923V15.5384H770.028V30.923H754.644ZM708.49 15.5384V0.153809H754.644V15.5384H708.49Z" fill="#ffff00"/>
<path d="M893.075 154V138.615H908.46V154H893.075ZM877.69 138.615V123.231H893.075V138.615H877.69ZM862.306 123.231V107.846H877.69V123.231H862.306ZM846.921 107.846V92.4615H862.306V107.846H846.921ZM785.383 154V77.0769H800.767V154H785.383ZM846.921 61.6923V46.3077H862.306V61.6923H846.921ZM862.306 46.3077V30.923H877.69V46.3077H862.306ZM877.69 30.923V15.5384H893.075V30.923H877.69ZM831.537 92.4615V77.0769H800.767V0.153809H816.152V61.6923H846.921V92.4615H831.537ZM893.075 15.5384V0.153809H908.46V15.5384H893.075Z" fill="#ffff00"/>
<path d="M923.859 154V77.0769H939.244V138.615H1031.55V154H923.859ZM939.244 77.0769V0.153809H1031.55V15.5384H954.629V61.6923H1016.17V77.0769H939.244Z" fill="#ffff00"/>
<path d="M1077.68 154V77.0769H1093.06V154H1077.68ZM1093.06 77.0769V15.5384H1046.91V0.153809H1154.6V15.5384H1108.44V77.0769H1093.06Z" fill="#ffff00"/>
<path d="M1200.72 154V138.615H1262.26V154H1200.72ZM1185.34 138.615V123.231H1200.72V138.615H1185.34ZM1262.26 138.615V123.231H1277.65V138.615H1262.26ZM1169.95 123.231V46.3077H1185.34V123.231H1169.95ZM1185.34 46.3077V30.923H1200.72V46.3077H1185.34ZM1200.72 30.923V15.5384H1216.11V30.923H1200.72ZM1277.65 30.923V15.5384H1293.03V30.923H1277.65ZM1216.11 15.5384V0.153809H1277.65V15.5384H1216.11Z" fill="#ffff00"/>
<path d="M1308.43 154V77.0769H1323.81V154H1308.43ZM1400.74 154V77.0769H1323.81V0.153809H1339.2V61.6923H1416.12V0.153809H1431.51V77.0769H1416.12V154H1400.74Z" fill="#ffff00"/>
<path d="M1446.91 154V77.0769H1462.29V138.615H1554.6V154H1446.91ZM1462.29 77.0769V0.153809H1554.6V15.5384H1477.68V61.6923H1539.21V77.0769H1462.29Z" fill="#ffff00"/>
<path d="M1600.72 154V138.615H1646.88V154H1600.72ZM1585.34 138.615V123.231H1600.72V138.615H1585.34ZM1646.88 138.615V123.231H1662.26V138.615H1646.88ZM1569.95 123.231V107.846H1585.34V123.231H1569.95ZM1662.26 123.231V92.4615H1677.65V123.231H1662.26ZM1631.49 92.4615V77.0769H1662.26V92.4615H1631.49ZM1600.72 77.0769V61.6923H1631.49V77.0769H1600.72ZM1585.34 61.6923V30.923H1600.72V61.6923H1585.34ZM1600.72 30.923V15.5384H1616.11V30.923H1600.72ZM1662.26 30.923V15.5384H1677.65V30.923H1662.26ZM1616.11 15.5384V0.153809H1662.26V15.5384H1616.11Z" fill="#ffff00"/>
</svg>
