<svg width="539" height="155" viewBox="0 0 539 155" fill="none" xmlns="http://www.w3.org/2000/svg" preserveAspectRatio="none">
<path d="M30.7692 154V138.615H92.3077V154H30.7692ZM15.3846 138.615V123.231H30.7692V138.615H15.3846ZM92.3077 138.615V123.231H107.692V138.615H92.3077ZM0 123.231V46.3077H15.3846V123.231H0ZM15.3846 46.3077V30.923H30.7692V46.3077H15.3846ZM30.7692 30.923V15.5384H46.1539V30.923H30.7692ZM107.692 30.923V15.5384H123.077V30.923H107.692ZM46.1539 15.5384V0.153809H107.692V15.5384H46.1539Z" fill="white"/>
<path d="M169.246 154V138.615H215.4V154.24L169.246 154ZM153.861 138.615V123.231H169.246V138.615H153.861ZM215.4 138.615V123.231H246.169V138.615H215.4ZM246.169 123.231V92.4615H261.553V123.231H246.169ZM138.477 123.231V61.6923H153.861V123.231H138.477ZM153.861 61.6923V30.923H169.246V61.6923H153.861ZM261.553 92.4615V30.923H276.938V92.4615H261.553ZM169.246 30.923V15.5384H200.015V30.923H169.246ZM246.169 30.923V15.5384H261.553V30.923H246.169ZM200.015 15.5384V0.153809H246.169V15.5384H200.015Z" fill="white"/>
<path d="M369.306 138.615V123.231H384.691V138.615H369.306ZM384.691 123.231V107.846H400.075V123.231H384.691ZM292.383 154V77.0769H307.767V138.615H369.306V154H292.383ZM400.075 107.846V30.923H415.46V107.846H400.075ZM384.691 30.923V15.5384H400.075V30.923H384.691ZM307.767 77.0769V0.153809H384.691V15.5384H323.152V77.0769H307.767Z" fill="white"/>
<path d="M430.859 154V77.0769H446.244V138.615H538.552V154H430.859ZM446.244 77.0769V0.153809H538.552V15.5384H461.629V61.6923H523.167V77.0769H446.244Z" fill="white"/>
</svg>
