<svg width="1016" height="154" viewBox="0 0 1016 154" fill="none" xmlns="http://www.w3.org/2000/svg" preserveAspectRatio="none">
<path d="M30.7692 154V138.615H76.9231V154H30.7692ZM15.3846 138.615V123.231H30.7692V138.615H15.3846ZM76.9231 138.615V123.231H92.3077V138.615H76.9231ZM0 123.231V107.846H15.3846V123.231H0ZM92.3077 123.231V92.4615H107.692V123.231H92.3077ZM61.5385 92.4615V77.0769H92.3077V92.4615H61.5385ZM30.7692 77.0769V61.6923H61.5385V77.0769H30.7692ZM15.3846 61.6923V30.923H30.7692V61.6923H15.3846ZM30.7692 30.923V15.5384H46.1539V30.923H30.7692ZM92.3077 30.923V15.5384H107.692V30.923H92.3077ZM46.1539 15.5384V0.153809H92.3077V15.5384H46.1539Z" fill="white"/>
<path d="M230.739 154V138.615H246.124V154H230.739ZM215.355 138.615V123.231H230.739V138.615H215.355ZM199.97 123.231V107.846H215.355V123.231H199.97ZM184.585 107.846V92.4615H199.97V107.846H184.585ZM123.047 154V77.0769H138.431V154H123.047ZM184.585 61.6923V46.3077H199.97V61.6923H184.585ZM199.97 46.3077V30.923H215.355V46.3077H199.97ZM215.355 30.923V15.5384H230.739V30.923H215.355ZM169.201 92.4615V77.0769H138.431V0.153809H153.816V61.6923H184.585V92.4615H169.201ZM230.739 15.5384V0.153809H246.124V15.5384H230.739Z" fill="white"/>
<path d="M261.523 154V77.0769H276.908V138.615H369.216V154H261.523ZM276.908 77.0769V0.153809H369.216V15.5384H292.293V61.6923H353.831V77.0769H276.908Z" fill="white"/>
<path d="M415.34 154V77.0769H430.724V154H415.34ZM430.724 77.0769V15.5384H384.57V0.153809H492.263V15.5384H446.109V77.0769H430.724Z" fill="white"/>
<path d="M538.386 154V138.615H599.925V154H538.386ZM523.002 138.615V123.231H538.386V138.615H523.002ZM599.925 138.615V123.231H615.31V138.615H599.925ZM507.617 123.231V46.3077H523.002V123.231H507.617ZM523.002 46.3077V30.923H538.386V46.3077H523.002ZM538.386 30.923V15.5384H553.771V30.923H538.386ZM615.31 30.923V15.5384H630.694V30.923H615.31ZM553.771 15.5384V0.153809H615.31V15.5384H553.771Z" fill="white"/>
<path d="M646.094 154V77.0769H661.478V154H646.094ZM738.401 154V77.0769H661.478V0.153809H676.863V61.6923H753.786V0.153809H769.171V77.0769H753.786V154H738.401Z" fill="white"/>
<path d="M784.57 154V77.0769H799.955V138.615H892.263V154H784.57ZM799.955 77.0769V0.153809H892.263V15.5384H815.34V61.6923H876.878V77.0769H799.955Z" fill="white"/>
<path d="M938.386 154V138.615H984.54V154H938.386ZM923.002 138.615V123.231H938.386V138.615H923.002ZM984.54 138.615V123.231H999.925V138.615H984.54ZM907.617 123.231V107.846H923.002V123.231H907.617ZM999.925 123.231V92.4615H1015.31V123.231H999.925ZM969.156 92.4615V77.0769H999.925V92.4615H969.156ZM938.386 77.0769V61.6923H969.156V77.0769H938.386ZM923.002 61.6923V30.923H938.386V61.6923H923.002ZM938.386 30.923V15.5384H953.771V30.923H938.386ZM999.925 30.923V15.5384H1015.31V30.923H999.925ZM953.771 15.5384V0.153809H999.925V15.5384H953.771Z" fill="white"/>
</svg>
