<svg width="425" height="73" viewBox="0 0 425 73" fill="none" xmlns="http://www.w3.org/2000/svg">
<path d="M0.800003 72V0.799986H11V61.8H31.2V72H0.800003Z" fill="white"/>
<path d="M37.2117 17.6C37.2117 14.7333 37.7117 12.2 38.7117 9.99999C39.7117 7.79998 41.0451 5.96665 42.7117 4.49999C44.3117 3.09998 46.1117 2.03332 48.1117 1.29999C50.1784 0.56665 52.2451 0.199982 54.3117 0.199982C56.3784 0.199982 58.4117 0.56665 60.4117 1.29999C62.4784 2.03332 64.3451 3.09998 66.0117 4.49999C67.6117 5.96665 68.9117 7.79998 69.9117 9.99999C70.9117 12.2 71.4117 14.7333 71.4117 17.6V55.2C71.4117 58.2 70.9117 60.7667 69.9117 62.9C68.9117 65.0333 67.6117 66.8 66.0117 68.2C64.3451 69.6667 62.4784 70.7667 60.4117 71.5C58.4117 72.2333 56.3784 72.6 54.3117 72.6C52.2451 72.6 50.1784 72.2333 48.1117 71.5C46.1117 70.7667 44.3117 69.6667 42.7117 68.2C41.0451 66.8 39.7117 65.0333 38.7117 62.9C37.7117 60.7667 37.2117 58.2 37.2117 55.2V17.6ZM47.4117 55.2C47.4117 57.6667 48.0784 59.5 49.4117 60.7C50.8117 61.8333 52.4451 62.4 54.3117 62.4C56.1784 62.4 57.7784 61.8333 59.1117 60.7C60.5117 59.5 61.2117 57.6667 61.2117 55.2V17.6C61.2117 15.1333 60.5117 13.3333 59.1117 12.2C57.7784 11 56.1784 10.4 54.3117 10.4C52.4451 10.4 50.8117 11 49.4117 12.2C48.0784 13.3333 47.4117 15.1333 47.4117 17.6V55.2Z" fill="white"/>
<path d="M90.5898 10.4V32.6H96.3898C98.1898 32.6 99.6232 32.3667 100.69 31.9C101.757 31.3667 102.59 30.6333 103.19 29.7C103.723 28.7667 104.09 27.6333 104.29 26.3C104.49 24.9 104.59 23.3 104.59 21.5C104.59 19.7 104.49 18.1333 104.29 16.8C104.09 15.4 103.69 14.2 103.09 13.2C101.823 11.3333 99.4232 10.4 95.8898 10.4H90.5898ZM80.3898 72V0.799986H96.7898C108.79 0.799986 114.79 7.76665 114.79 21.7C114.79 25.9 114.123 29.4667 112.79 32.4C111.523 35.3333 109.257 37.7 105.99 39.5L116.99 72H106.19L96.6898 41.6H90.5898V72H80.3898Z" fill="white"/>
<path d="M122.968 72V0.799986H153.368V10.4H133.168V31.3H150.768V40.9H133.168V61.8H153.368V72H122.968Z" fill="white"/>
<path d="M159.98 72V0.799986H169.78L182.88 38.5H183.08L196.08 0.799986H205.98V72H195.78V28.7H195.58L185.48 59.3H180.38L170.38 28.7H170.18V72H159.98Z" fill="white"/>
<path d="M234.401 72V0.799986H244.601V72H234.401Z" fill="white"/>
<path d="M254.511 72V0.799986H269.811C272.611 0.799986 275.078 1.16665 277.211 1.89998C279.344 2.63332 281.278 3.93331 283.011 5.79998C284.744 7.66665 285.944 9.86665 286.611 12.4C287.278 14.8667 287.611 18.2333 287.611 22.5C287.611 25.7 287.411 28.4 287.011 30.6C286.678 32.8 285.911 34.8667 284.711 36.8C283.311 39.1333 281.444 40.9667 279.111 42.3C276.778 43.5667 273.711 44.2 269.911 44.2H264.711V72H254.511ZM264.711 10.4V34.6H269.611C271.678 34.6 273.278 34.3 274.411 33.7C275.544 33.1 276.378 32.2667 276.911 31.2C277.444 30.2 277.744 28.9667 277.811 27.5C277.944 26.0333 278.011 24.4 278.011 22.6C278.011 20.9333 277.978 19.3666 277.911 17.9C277.844 16.3667 277.544 15.0333 277.011 13.9C276.478 12.7666 275.678 11.9 274.611 11.3C273.544 10.7 272.011 10.4 270.011 10.4H264.711Z" fill="white"/>
<path d="M328.234 21.3H318.034V19C318.034 16.6667 317.467 14.6667 316.334 13C315.267 11.2666 313.434 10.4 310.834 10.4C309.434 10.4 308.3 10.6666 307.434 11.2C306.567 11.7333 305.867 12.4 305.334 13.2C304.8 14.0667 304.434 15.0666 304.234 16.2C304.034 17.2666 303.934 18.4 303.934 19.6C303.934 21 303.967 22.1667 304.034 23.1C304.167 24.0333 304.434 24.8667 304.834 25.6C305.234 26.3333 305.8 26.9667 306.534 27.5C307.334 28.0333 308.4 28.5667 309.734 29.1L317.534 32.2C319.8 33.0667 321.634 34.1 323.034 35.3C324.434 36.4333 325.534 37.7667 326.334 39.3C327.067 40.9 327.567 42.7333 327.834 44.8C328.1 46.8 328.234 49.1 328.234 51.7C328.234 54.7 327.934 57.5 327.334 60.1C326.734 62.6333 325.767 64.8 324.434 66.6C323.034 68.4666 321.2 69.9333 318.934 71C316.667 72.0667 313.9 72.6 310.634 72.6C308.167 72.6 305.867 72.1667 303.734 71.3C301.6 70.4333 299.767 69.2333 298.234 67.7C296.7 66.1667 295.467 64.4 294.534 62.4C293.667 60.3333 293.234 58.1 293.234 55.7V51.9H303.434V55.1C303.434 56.9667 303.967 58.6667 305.034 60.2C306.167 61.6667 308.034 62.4 310.634 62.4C312.367 62.4 313.7 62.1667 314.634 61.7C315.634 61.1667 316.4 60.4333 316.934 59.5C317.467 58.5667 317.767 57.4667 317.834 56.2C317.967 54.8667 318.034 53.4 318.034 51.8C318.034 49.9333 317.967 48.4 317.834 47.2C317.7 46 317.434 45.0333 317.034 44.3C316.567 43.5667 315.934 42.9667 315.134 42.5C314.4 42.0333 313.4 41.5333 312.134 41L304.834 38C300.434 36.2 297.467 33.8333 295.934 30.9C294.467 27.9 293.734 24.1667 293.734 19.7C293.734 17.0333 294.1 14.5 294.834 12.1C295.567 9.69998 296.667 7.63332 298.134 5.89999C299.534 4.16665 301.3 2.79998 303.434 1.79998C305.634 0.733316 308.234 0.199982 311.234 0.199982C313.767 0.199982 316.067 0.666648 318.134 1.59998C320.267 2.53331 322.1 3.76665 323.634 5.29998C326.7 8.49998 328.234 12.1667 328.234 16.3V21.3Z" fill="white"/>
<path d="M368.859 0.799986V56C368.859 58.3333 368.425 60.5 367.559 62.5C366.759 64.4333 365.592 66.1667 364.059 67.7C362.525 69.2333 360.759 70.4333 358.759 71.3C356.759 72.1667 354.625 72.6 352.359 72.6C350.092 72.6 347.959 72.1667 345.959 71.3C344.025 70.4333 342.292 69.2333 340.759 67.7C339.225 66.1667 338.025 64.4333 337.159 62.5C336.292 60.5 335.859 58.3333 335.859 56V0.799986H346.059V55C346.059 57.5333 346.659 59.4 347.859 60.6C349.059 61.8 350.559 62.4 352.359 62.4C354.159 62.4 355.659 61.8 356.859 60.6C358.059 59.4 358.659 57.5333 358.659 55V0.799986H368.859Z" fill="white"/>
<path d="M378.437 72V0.799986H388.237L401.337 38.5H401.537L414.537 0.799986H424.437V72H414.237V28.7H414.037L403.937 59.3H398.837L388.837 28.7H388.637V72H378.437Z" fill="white"/>
</svg>
