<svg width="315" height="73" viewBox="0 0 315 73" fill="none" xmlns="http://www.w3.org/2000/svg" preserveAspectRatio="none">
<path d="M35.8 21.3002H25.6V19.0002C25.6 16.6669 25.0333 14.6669 23.9 13.0002C22.8333 11.2669 21 10.4002 18.4 10.4002C17 10.4002 15.8667 10.6669 15 11.2002C14.1333 11.7335 13.4333 12.4002 12.9 13.2002C12.3667 14.0669 12 15.0669 11.8 16.2002C11.6 17.2669 11.5 18.4002 11.5 19.6002C11.5 21.0002 11.5333 22.1669 11.6 23.1002C11.7333 24.0335 12 24.8669 12.4 25.6002C12.8 26.3335 13.3667 26.9669 14.1 27.5002C14.9 28.0335 15.9667 28.5669 17.3 29.1002L25.1 32.2002C27.3667 33.0669 29.2 34.1002 30.6 35.3002C32 36.4335 33.1 37.7669 33.9 39.3002C34.6333 40.9002 35.1333 42.7335 35.4 44.8002C35.6667 46.8002 35.8 49.1002 35.8 51.7002C35.8 54.7002 35.5 57.5002 34.9 60.1002C34.3 62.6335 33.3333 64.8002 32 66.6002C30.6 68.4669 28.7667 69.9335 26.5 71.0002C24.2333 72.0669 21.4667 72.6002 18.2 72.6002C15.7333 72.6002 13.4333 72.1669 11.3 71.3002C9.16665 70.4335 7.33332 69.2335 5.79999 67.7002C4.26665 66.1669 3.03332 64.4002 2.09999 62.4002C1.23332 60.3335 0.799988 58.1002 0.799988 55.7002V51.9002H11V55.1002C11 56.9669 11.5333 58.6669 12.6 60.2002C13.7333 61.6669 15.6 62.4002 18.2 62.4002C19.9333 62.4002 21.2667 62.1669 22.2 61.7002C23.2 61.1669 23.9667 60.4335 24.5 59.5002C25.0333 58.5669 25.3333 57.4669 25.4 56.2002C25.5333 54.8669 25.6 53.4002 25.6 51.8002C25.6 49.9335 25.5333 48.4002 25.4 47.2002C25.2667 46.0002 25 45.0335 24.6 44.3002C24.1333 43.5669 23.5 42.9669 22.7 42.5002C21.9667 42.0335 20.9667 41.5335 19.7 41.0002L12.4 38.0002C7.99999 36.2002 5.03332 33.8335 3.49999 30.9002C2.03332 27.9002 1.29999 24.1669 1.29999 19.7002C1.29999 17.0335 1.66665 14.5002 2.39999 12.1002C3.13332 9.7002 4.23332 7.63353 5.69999 5.9002C7.09999 4.16686 8.86665 2.8002 11 1.8002C13.2 0.73353 15.8 0.200195 18.8 0.200195C21.3333 0.200195 23.6333 0.666862 25.7 1.6002C27.8333 2.53353 29.6667 3.76686 31.2 5.3002C34.2667 8.5002 35.8 12.1669 35.8 16.3002V21.3002Z" fill="white"/>
<path d="M43.425 72.0002V0.8002H53.625V33.3002H53.825L68.725 0.8002H78.925L65.025 29.3002L81.525 72.0002H70.725L59.125 40.4002L53.625 50.7002V72.0002H43.425Z" fill="white"/>
<path d="M86.0031 72.0002V0.8002H116.403V10.4002H96.2031V31.3002H113.803V40.9002H96.2031V61.8002H116.403V72.0002H86.0031Z" fill="white"/>
<path d="M134.715 72.0002V10.4002H122.915V0.8002H156.715V10.4002H144.915V72.0002H134.715Z" fill="white"/>
<path d="M193.618 51.7002V56.1002C193.618 58.3002 193.185 60.4002 192.318 62.4002C191.518 64.3335 190.385 66.0669 188.918 67.6002C187.451 69.1335 185.718 70.3669 183.718 71.3002C181.785 72.1669 179.685 72.6002 177.418 72.6002C175.485 72.6002 173.518 72.3335 171.518 71.8002C169.518 71.2669 167.718 70.3335 166.118 69.0002C164.518 67.6669 163.185 65.9669 162.118 63.9002C161.118 61.7669 160.618 59.0669 160.618 55.8002V16.6002C160.618 14.2669 161.018 12.1002 161.818 10.1002C162.618 8.1002 163.751 6.36686 165.218 4.9002C166.685 3.43353 168.418 2.3002 170.418 1.5002C172.485 0.633529 174.751 0.200195 177.218 0.200195C182.018 0.200195 185.918 1.76686 188.918 4.9002C190.385 6.43353 191.518 8.26687 192.318 10.4002C193.185 12.4669 193.618 14.7335 193.618 17.2002V21.2002H183.418V17.8002C183.418 15.8002 182.851 14.0669 181.718 12.6002C180.585 11.1335 179.051 10.4002 177.118 10.4002C174.585 10.4002 172.885 11.2002 172.018 12.8002C171.218 14.3335 170.818 16.3002 170.818 18.7002V55.1002C170.818 57.1669 171.251 58.9002 172.118 60.3002C173.051 61.7002 174.685 62.4002 177.018 62.4002C177.685 62.4002 178.385 62.3002 179.118 62.1002C179.918 61.8335 180.651 61.4335 181.318 60.9002C181.918 60.3669 182.418 59.6335 182.818 58.7002C183.218 57.7669 183.418 56.6002 183.418 55.2002V51.7002H193.618Z" fill="white"/>
<path d="M201.941 72.0002V0.8002H212.141V31.3002H224.741V0.8002H234.941V72.0002H224.741V40.3002H212.141V72.0002H201.941Z" fill="white"/>
<path d="M244.519 72.0002V0.8002H274.919V10.4002H254.719V31.3002H272.319V40.9002H254.719V61.8002H274.919V72.0002H244.519Z" fill="white"/>
<path d="M314.53 21.3002H304.33V19.0002C304.33 16.6669 303.764 14.6669 302.63 13.0002C301.564 11.2669 299.73 10.4002 297.13 10.4002C295.73 10.4002 294.597 10.6669 293.73 11.2002C292.864 11.7335 292.164 12.4002 291.63 13.2002C291.097 14.0669 290.73 15.0669 290.53 16.2002C290.33 17.2669 290.23 18.4002 290.23 19.6002C290.23 21.0002 290.264 22.1669 290.33 23.1002C290.464 24.0335 290.73 24.8669 291.13 25.6002C291.53 26.3335 292.097 26.9669 292.83 27.5002C293.63 28.0335 294.697 28.5669 296.03 29.1002L303.83 32.2002C306.097 33.0669 307.93 34.1002 309.33 35.3002C310.73 36.4335 311.83 37.7669 312.63 39.3002C313.364 40.9002 313.864 42.7335 314.13 44.8002C314.397 46.8002 314.53 49.1002 314.53 51.7002C314.53 54.7002 314.23 57.5002 313.63 60.1002C313.03 62.6335 312.064 64.8002 310.73 66.6002C309.33 68.4669 307.497 69.9335 305.23 71.0002C302.964 72.0669 300.197 72.6002 296.93 72.6002C294.464 72.6002 292.164 72.1669 290.03 71.3002C287.897 70.4335 286.064 69.2335 284.53 67.7002C282.997 66.1669 281.764 64.4002 280.83 62.4002C279.964 60.3335 279.53 58.1002 279.53 55.7002V51.9002H289.73V55.1002C289.73 56.9669 290.264 58.6669 291.33 60.2002C292.464 61.6669 294.33 62.4002 296.93 62.4002C298.664 62.4002 299.997 62.1669 300.93 61.7002C301.93 61.1669 302.697 60.4335 303.23 59.5002C303.764 58.5669 304.064 57.4669 304.13 56.2002C304.264 54.8669 304.33 53.4002 304.33 51.8002C304.33 49.9335 304.264 48.4002 304.13 47.2002C303.997 46.0002 303.73 45.0335 303.33 44.3002C302.864 43.5669 302.23 42.9669 301.43 42.5002C300.697 42.0335 299.697 41.5335 298.43 41.0002L291.13 38.0002C286.73 36.2002 283.764 33.8335 282.23 30.9002C280.764 27.9002 280.03 24.1669 280.03 19.7002C280.03 17.0335 280.397 14.5002 281.13 12.1002C281.864 9.7002 282.964 7.63353 284.43 5.9002C285.83 4.16686 287.597 2.8002 289.73 1.8002C291.93 0.73353 294.53 0.200195 297.53 0.200195C300.064 0.200195 302.364 0.666862 304.43 1.6002C306.564 2.53353 308.397 3.76686 309.93 5.3002C312.997 8.5002 314.53 12.1669 314.53 16.3002V21.3002Z" fill="white"/>
</svg>
